<svg width="29" height="28" viewBox="0 0 29 28" fill="none" xmlns="http://www.w3.org/2000/svg">
<path d="M14.5472 0.138672C17.2937 0.138672 19.9787 0.95313 22.2624 2.47905C24.5461 4.00498 26.326 6.17383 27.3771 8.71135C28.4281 11.2489 28.7032 14.0411 28.1673 16.7349C27.6315 19.4287 26.3089 21.9031 24.3667 23.8453C22.4246 25.7874 19.9502 27.11 17.2564 27.6458C14.5626 28.1817 11.7703 27.9067 9.23283 26.8556C6.69531 25.8045 4.52646 24.0246 3.00054 21.7409C1.47461 19.4572 0.660156 16.7723 0.660156 14.0257C0.660156 10.3426 2.12325 6.8104 4.72756 4.20608C7.33188 1.60176 10.8641 0.138672 14.5472 0.138672V0.138672Z" fill="white"/>
<path d="M8.48466 19.2189H11.0847V10.5519H8.48466V19.2189ZM18.6147 10.2519C18.004 10.231 17.397 10.3539 16.8426 10.6106C16.2881 10.8674 15.8017 11.2508 15.4227 11.7299V10.5229H12.8127V19.2229H15.4227V14.5229C15.4465 13.9941 15.6727 13.4946 16.0544 13.1277C16.4361 12.7609 16.9442 12.5547 17.4737 12.5519C18.6137 12.5519 18.8957 13.5209 18.8957 14.4909V19.2169H21.4957V14.2989C21.4957 10.8819 19.8777 10.2519 18.6147 10.2519ZM9.77266 9.68594C10.0298 9.68594 10.2811 9.6097 10.4949 9.46685C10.7087 9.32401 10.8753 9.12097 10.9737 8.88342C11.0721 8.64588 11.0978 8.3845 11.0477 8.13233C10.9975 7.88015 10.8737 7.64851 10.6919 7.4667C10.5101 7.28489 10.2785 7.16108 10.0263 7.11092C9.7741 7.06076 9.51271 7.0865 9.27517 7.18489C9.03763 7.28329 8.8346 7.44991 8.69175 7.6637C8.5489 7.87748 8.47266 8.12883 8.47266 8.38594C8.47266 8.73072 8.60962 9.06138 8.85342 9.30518C9.09721 9.54897 9.42788 9.68594 9.77266 9.68594V9.68594Z" fill="#1E1E1E"/>
</svg>
