<svg width="29" height="28" viewBox="0 0 29 28" fill="none" xmlns="http://www.w3.org/2000/svg">
<path d="M14.5182 27.8351C22.1717 27.8351 28.3762 21.6307 28.3762 13.9771C28.3762 6.32358 22.1717 0.119141 14.5182 0.119141C6.86459 0.119141 0.660156 6.32358 0.660156 13.9771C0.660156 21.6307 6.86459 27.8351 14.5182 27.8351Z" fill="white"/>
<path d="M21.77 11.3022C21.77 10.7452 21.5487 10.2111 21.1549 9.81723C20.7611 9.4234 20.2269 9.20215 19.67 9.20215H9.80701C9.25005 9.20215 8.71591 9.4234 8.32208 9.81723C7.92826 10.2111 7.70703 10.7452 7.70703 11.3022V16.9422C7.70703 17.4991 7.92826 18.0333 8.32208 18.4271C8.71591 18.8209 9.25005 19.0422 9.80701 19.0422H19.67C20.2269 19.0422 20.7611 18.8209 21.1549 18.4271C21.5487 18.0333 21.77 17.4991 21.77 16.9422V11.3022ZM13.33 16.5022V11.2021L17.347 13.8512L13.33 16.5022Z" fill="#1E1E1E"/>
</svg>
