<svg width="29" height="28" viewBox="0 0 29 28" fill="none" xmlns="http://www.w3.org/2000/svg">
<path d="M28.3291 13.9317C28.3288 10.2626 26.8711 6.74383 24.2766 4.14948C21.6821 1.55513 18.1632 0.0976562 14.4941 0.0976562C10.8251 0.0976563 7.30641 1.55516 4.71204 4.14954C2.11766 6.74392 0.660156 10.2627 0.660156 13.9317C0.660497 17.2261 1.83615 20.4123 3.97571 22.9173C6.11527 25.4224 9.07836 27.082 12.3322 27.5977V17.9307H8.82019V13.9307H12.3322V10.8847C12.3322 7.41766 14.3981 5.50266 17.5581 5.50266C18.5966 5.51685 19.6328 5.60709 20.6582 5.77266V9.17266H18.9132C18.6161 9.13341 18.3139 9.16146 18.0291 9.25471C17.7442 9.34797 17.4839 9.50406 17.2675 9.71144C17.0511 9.91881 16.8841 10.1722 16.7788 10.4528C16.6735 10.7334 16.6326 11.0341 16.6592 11.3327V13.9327H20.4962L19.8832 17.9327H16.6602V27.5977C19.9134 27.0814 22.8758 25.4215 25.0148 22.9165C27.1537 20.4115 28.3289 17.2256 28.3291 13.9317V13.9317Z" fill="white"/>
</svg>
